# xmcd
#
# Track frame offsets:
#	150
#	17609
#	29577
#	45745
#	64628
#	77315
#	95964
#	115202
#	130483
#
# Disc length: 1967 seconds
#
# Revision: 0
# Processed by: cddbd v1.5.2PL0 Copyright (c) Steve Scherf et al.
# Submitted via: audiograbber 1.83.01
#
DISCID=7307ad09
DTITLE=Various Artist - FTXC412
DYEAR=2012
DGENRE=Karaoke
TTITLE0=Lady Antebellum - Dancing Away With My Heart
TTITLE1=Billy Currington - Like My Dog
TTITLE2=Kenny Chesney - Reality
TTITLE3=Sara Evans - My Heart Can't Tell You No
TTITLE4=Chris Young - You
TTITLE5=Taylor Swift and The Civil Wars - Safe And Sound
TTITLE6=Miranda Lambert - Over You
TTITLE7=Eric Church - Like Jesus Does
TTITLE8=Miranda Lambert - Dear Diamond
EXTD=Whats on file is totally wrong.. Correct submission here
EXTT0=
EXTT1=
EXTT2=
EXTT3=
EXTT4=
EXTT5=
EXTT6=
EXTT7=
EXTT8=
PLAYORDER=
